<?xml version="1.0" standalone="no"?>
<!DOCTYPE svg PUBLIC "-//W3C//DTD SVG 1.1//EN" "http://www.w3.org/Graphics/SVG/1.1/DTD/svg11.dtd" >
<svg xmlns="http://www.w3.org/2000/svg">
<metadata></metadata>
<defs>
<font id="pcap_terminalregular" horiz-adv-x="1500" >
<font-face units-per-em="2048" ascent="1638" descent="-410" />
<missing-glyph horiz-adv-x="1300" />
<glyph unicode="&#xd;" horiz-adv-x="608" />
<glyph horiz-adv-x="100" />
<glyph horiz-adv-x="100" />
<glyph unicode=" "  horiz-adv-x="1300" />
<glyph unicode="&#x09;" horiz-adv-x="1300" />
<glyph unicode="&#xa0;" horiz-adv-x="1300" />
<glyph unicode="!" horiz-adv-x="300" d="M-1 50v100q1 50 51 50h101q49 0 49 -49v-101q0 -50 -50 -50h-100q-50 0 -51 50zM-1 950q0 50 50 50h100q50 0 51 -50l1 -600h-1q0 -50 -50 -50h-100q-50 0 -50 50z" />
<glyph unicode="&#x22;" horiz-adv-x="650" d="M0 550v150q1 50 50 50v200q0 50 50 50h100q50 0 50 -50v-150q0 -250 -250 -250zM300 550v150q1 50 50 50v200q0 50 50 50h100q50 0 50 -50v-150q0 -250 -250 -250z" />
<glyph unicode="#" horiz-adv-x="1300" d="M0 250v100q0 50 50 50h250v200h-250q-50 0 -50 50v100q0 50 50 50h250v150q0 50 50 50h100q50 0 50 -50v-150h199v150q0 50 50 50h100q50 0 50 -50v-150h251q50 0 50 -50v-100q0 -50 -50 -50h-251l1 -200h250q50 0 50 -50v-100q0 -50 -50 -50h-250v-150h-1q0 -50 -50 -50 h-100q-50 0 -50 50v150h-198v-150h-1q0 -50 -50 -50h-100q-50 0 -50 50v150h-250q-50 0 -50 50zM500 600l1 -200h198v200h-199z" />
<glyph unicode="$" horiz-adv-x="1400" d="M0 149l1 101q0 50 49 50h500v100h-299q-251 0 -251 250t251 250h299v50q0 50 50 50h100q50 0 50 -50v-50h503q48 0 48 -49l-1 -101q0 -50 -49 -50h-501v-100h299q251 0 251 -250t-250 -250h-300v-50q0 -50 -50 -50h-100q-50 0 -50 50v50h-502q-48 0 -48 49zM200 700 l1 -101h349v101h-350zM750 300h350l-1 101h-349v-101z" />
<glyph unicode="%" horiz-adv-x="1300" d="M0 0l380 400h-130q-250 0 -250 250v100q0 250 251 250h199q250 0 250 -250v-13l250 263h250l-380 -400h130q250 0 250 -250v-100q0 -250 -250 -250h-200q-250 0 -250 250v13l-250 -263h-250zM200 800l1 -200h299l1 200h-301zM701 200h299v200h-299v-200z" />
<glyph unicode="&#x26;" d="M0 300q0 150 100 200q-100 50 -100 200v50q0 250 250 250h899q51 0 51 -50v-100q0 -50 -50 -50h-950l1 -200h899v50q0 50 50 50h100q50 0 50 -50v-50h50q50 0 50 -50v-100q0 -50 -50 -50h-50v-150q0 -250 -250 -250h-799q-250 0 -250 250zM200 400l1 -200h899v200h-900z " />
<glyph unicode="'" horiz-adv-x="350" d="M0 550v150q1 50 50 50v200q0 50 50 50h100q50 0 50 -50v-150q0 -250 -250 -250z" />
<glyph unicode="(" horiz-adv-x="600" d="M0 150l1 900q0 250 251 250h203q48 0 48 -49l-1 -101q0 -50 -49 -50h-252v-1001l251 1q50 0 50 -50l-1 -100q0 -50 -49 -50h-201q-251 0 -251 250z" />
<glyph unicode=")" horiz-adv-x="600" d="M0 -51l1 101q0 50 49 50h252v1001l-251 -1q-50 0 -50 50l1 100q0 50 49 50h201q251 0 251 -250l-1 -900q0 -250 -251 -250h-203q-48 0 -48 49z" />
<glyph unicode="*" horiz-adv-x="900" d="M0 755q0 10 4 21l31 95q11 36 41 36q10 0 22 -4l202 -65v212q0 50 50 50h100q50 0 50 -50v-212l202 65q12 4 22 4q30 0 41 -36l31 -95q4 -11 4 -21q0 -30 -36 -42l-202 -65l125 -172q12 -17 12 -32q0 -21 -23 -38l-81 -59q-17 -12 -32 -12q-21 0 -38 23l-125 172 l-125 -172q-17 -23 -38 -23q-15 0 -32 12l-81 59q-23 17 -23 38q0 15 12 32l125 172l-202 65q-36 12 -36 42z" />
<glyph unicode="+" horiz-adv-x="1300" d="M0 450v100q0 50 50 50h450v350q0 50 50 50h100q50 0 50 -50v-350h450q50 0 50 -50v-100q0 -50 -50 -50h-449v-350h-1q0 -50 -50 -50h-100q-50 0 -50 50v350h-450q-50 0 -50 50z" />
<glyph unicode="," horiz-adv-x="300" d="M-50 -100q1 50 50 50v200q0 50 50 50h100q50 0 51 -50l-1 -150q0 -250 -250 -250v150z" />
<glyph unicode="-" horiz-adv-x="1300" d="M0 450v100q0 50 50 50h1100q50 0 50 -50v-100q0 -50 -50 -50h-1100q-50 0 -50 50z" />
<glyph unicode="." horiz-adv-x="300" d="M0 50v100q0 50 50 50h100q50 0 51 -50v-100q-1 -50 -51 -50h-101q-49 0 -49 50z" />
<glyph unicode="/" horiz-adv-x="1300" d="M0 0l950 1000h250l-950 -1000h-250z" />
<glyph unicode="0" d="M0 250v500q0 250 251 250h899q250 0 250 -250v-500q0 -250 -250 -250h-900q-250 0 -250 250zM201 200l999 -1l1 601l-1000 1v-601z" />
<glyph unicode="1" horiz-adv-x="600" d="M0 750l150 149q100 100 150 100q200 0 200 -201v-749q0 -49 -49 -49h-102q-50 0 -50 49v751l-149 -150z" />
<glyph unicode="2" d="M-1 350q0 250 251 250h950v200h-1151q-49 0 -49 50l-1 101q0 49 48 49h1102q251 0 251 -250l-1 -100q0 -250 -251 -250l-948 1l-1 -201h1150q49 0 49 -50l1 -101q0 -49 -48 -49h-1301q-50 0 -50 50z" />
<glyph unicode="3" d="M0 50v100q0 50 50 50h1149l1 200h-950q-50 0 -50 50v100q0 50 50 50h949l1 200h-1150q-50 0 -50 50v100q0 50 51 50h1099q250 0 250 -250v-50q0 -150 -100 -200q100 -50 100 -200l-1 -50q0 -250 -250 -250h-1099q-50 1 -50 50z" />
<glyph unicode="4" d="M0 425q0 50 125 175l375 400h300l-500 -500h700v450q0 50 50 50h100q50 0 50 -50v-450h150q50 0 50 -50v-100q0 -50 -50 -50h-150v-250q0 -50 -50 -50h-100q-50 0 -50 50v250h-850q-150 0 -150 125z" />
<glyph unicode="5" d="M0 49l1 101q0 50 49 50h1150v200h-1150q-50 0 -50 50v500q0 50 50 50h1302q48 0 48 -49l-1 -101q0 -50 -49 -50h-1151l1 -200h949q251 0 251 -250v-100q0 -250 -250 -250h-1102q-48 0 -48 49z" />
<glyph unicode="6" d="M-1 250v500q0 250 251 250h1003q48 0 48 -49l-1 -101q0 -50 -49 -50h-1052v-200h951q250 0 250 -250v-100q-1 -250 -250 -250h-900q-251 0 -251 250zM200 199l1000 1v200h-1000v-201z" />
<glyph unicode="7" d="M0 850v100q0 50 50 50h1200q150 0 150 -125q0 -75 -125 -175l-775 -700h-300l900 800h-1050q-50 0 -50 50z" />
<glyph unicode="8" d="M0 250v50q0 150 100 200q-100 50 -100 200l1 50q0 250 250 250h899q250 0 250 -250v-50q0 -150 -100 -200q100 -50 100 -200l-1 -50q0 -250 -250 -250h-899q-250 0 -250 250zM200 200h999l1 200h-999zM200 600h999l1 200h-999z" />
<glyph unicode="9" d="M-1 650v100q1 250 250 250h900q251 0 251 -250v-500q0 -250 -251 -250h-1003q-48 0 -48 49l1 101q0 50 49 50h1052v200h-951q-250 0 -250 250zM199 600h1000v201l-1000 -1v-200z" />
<glyph unicode=":" horiz-adv-x="300" d="M0 250v100q0 50 50 50h100q50 0 51 -50v-100q-1 -50 -51 -50h-101q-49 0 -49 50zM0 650v100q0 50 50 50h100q50 0 51 -50v-100q-1 -50 -51 -50h-101q-49 0 -49 50z" />
<glyph unicode=";" horiz-adv-x="300" d="M-50 -100q1 50 50 50v200q0 50 50 50h100q50 0 51 -50l-1 -150q0 -250 -250 -250v150zM0 650v100q0 50 50 50h100q50 0 51 -50v-100q-1 -50 -51 -50h-101q-49 0 -49 50z" />
<glyph unicode="&#x3c;" horiz-adv-x="1050" d="M0 500q0 75 100 125l500 275h350l-750 -400l750 -400h-350l-500 275q-100 50 -100 125z" />
<glyph unicode="=" horiz-adv-x="1300" d="M0 250v100q0 50 50 50h1100q50 0 50 -50v-100q0 -50 -50 -50h-1100q-50 0 -50 50zM0 650v100q0 50 50 50h1100q50 0 50 -50v-100q0 -50 -50 -50h-1100q-50 0 -50 50z" />
<glyph unicode="&#x3e;" horiz-adv-x="1050" d="M0 100l750 400l-750 400h350l500 -275q100 -50 100 -125t-100 -125l-500 -275h-350z" />
<glyph unicode="?" d="M0 951q0 49 48 49h1102q250 0 250 -250l1 -100q0 -250 -251 -250h-750v-50q0 -50 -50 -50h-100q-50 0 -50 50q0 250 250 250h750l1 200h-1151q-49 0 -49 50zM200 50v100q1 50 51 50h101q49 0 49 -49v-101q0 -50 -50 -50h-100q-50 0 -51 50z" />
<glyph unicode="@" horiz-adv-x="1300" d="M-1 250v500q0 250 251 250h700q250 0 250 -251v-449q0 -50 -50 -50h-600q-250 0 -250 251q0 249 249 249h451v50h-800v-600h851q50 0 50 -50l-1 -100q0 -50 -49 -50h-801q-251 0 -251 250zM500 450h500v100h-500v-100z" />
<glyph unicode="A" d="M-100 0l576 850q99 150 224 150t226 -150l574 -850h-225l-135 200h-880l-135 -200h-225zM396 400h608l-304 450z" />
<glyph unicode="B" d="M0 50v900q0 50 51 50h1099q250 0 250 -250v-50q0 -150 -100 -200q100 -50 100 -200l-1 -50q0 -250 -250 -250h-1099q-50 1 -50 50zM200 200h999l1 200h-999zM200 600h999l1 200l-999 1z" />
<glyph unicode="C" d="M-1 250v500q0 250 251 250h1102q48 0 48 -49l-1 -101q0 -50 -49 -50h-1151l1 -601l1150 1q50 0 50 -50l-1 -100q0 -50 -49 -50h-1100q-251 0 -251 250z" />
<glyph unicode="D" d="M0 50v900q0 50 50 50h1100q250 0 250 -250v-500q0 -250 -250 -250h-1100q-50 0 -50 50zM201 200l999 -1l1 601l-1000 1v-601z" />
<glyph unicode="E" d="M-1 250v500q0 250 251 250h1102q48 0 48 -49l-1 -101q0 -50 -49 -50h-1151v-200h1151q50 0 50 -50v-100q0 -50 -50 -50h-1150v-201l1150 1q50 0 50 -50l-1 -100q0 -50 -49 -50h-1100q-251 0 -251 250z" />
<glyph unicode="F" d="M-1 750q0 250 251 250h1102q48 0 48 -49l-1 -101q0 -50 -49 -50h-1151v-200h1151q50 0 50 -50v-100q0 -50 -50 -50h-1150v-350q0 -50 -49 -50h-101q-50 0 -50 50z" />
<glyph unicode="G" d="M-1 250v500q0 250 251 250h1102q48 0 48 -49l-1 -101q0 -50 -49 -50h-1151l1 -601l1000 1v200h-450q-50 0 -50 50v100q0 50 50 50h600q50 0 50 -50v-300q-1 -250 -250 -250h-900q-251 0 -251 250z" />
<glyph unicode="H" d="M-1 950h1q0 50 50 50h100q50 0 50 -50v-350h1000v350h1q0 50 50 50h100q50 0 50 -50v-900q0 -50 -50 -50h-100q-50 0 -50 50v350h-1001v-350q0 -50 -50 -50h-100q-50 0 -50 50z" />
<glyph unicode="I" horiz-adv-x="300" d="M-1 950h1q0 50 50 50h100q50 0 50 -50v-900q0 -50 -50 -50h-100q-50 0 -50 50z" />
<glyph unicode="J" horiz-adv-x="1300" d="M-1 150q0 50 50 50l951 -1v752q0 49 48 49h102q50 0 50 -50l1 -700q0 -250 -251 -250h-901q-49 0 -49 50z" />
<glyph unicode="K" d="M0 50v899q1 50 50 50h100q50 0 50 -50v-899q0 -50 -50 -50h-100q-50 0 -50 50zM250 500q0 75 100 125l700 375h350l-950 -500l950 -500h-350l-700 375q-100 50 -100 125z" />
<glyph unicode="L" horiz-adv-x="1300" d="M-1 250l1 700q0 50 50 50h102q48 0 48 -49v-752l951 1q50 0 50 -50l-1 -100q0 -50 -49 -50h-901q-251 0 -251 250z" />
<glyph unicode="M" horiz-adv-x="1700" d="M0 50v750q0 200 200 201q100 0 200 -151l401 -650l399 651q101 149 200 149q200 0 200 -201v-749q0 -49 -49 -49h-102q-50 0 -50 49v751l-449 -701q-50 -100 -149 -100q-100 0 -151 99l-450 701l1 -750q-1 -49 -52 -49h-99q-50 0 -50 49z" />
<glyph unicode="N" d="M0 50v750q0 200 200 201q100 0 250 -151l750 -701v802q0 49 50 49h100q51 0 51 -50v-750q-1 -200 -201 -200q-100 0 -250 150l-751 700v-799q0 -51 -49 -51h-101q-49 0 -49 50z" />
<glyph unicode="O" d="M0 250v500q0 250 251 250h899q250 0 250 -250v-500q0 -250 -250 -250h-900q-250 0 -250 250zM201 200l999 -1l1 601l-1000 1v-601z" />
<glyph unicode="P" d="M0 50v900q1 50 50 50h1100q250 0 250 -250l-1 -200q0 -250 -250 -250h-949v-250q0 -50 -50 -50h-100q-50 0 -50 50zM200 500h999l1 300l-999 1z" />
<glyph unicode="Q" d="M0 250v500q0 250 251 250h899q250 0 250 -250v-500q0 -250 -250 -250h-50v-150q0 -50 -50 -50h-100q-50 0 -50 50v150h-650q-250 0 -250 250zM201 200l699 -1v151q0 50 50 50h100q50 0 50 -50v-151h100v601l-999 1v-601z" />
<glyph unicode="R" d="M0 50v900q1 50 50 50h1100q250 0 250 -250l-1 -150q0 -150 -100 -200q100 -50 100 -200l1 -150q0 -50 -50 -50h-100q-50 0 -50 50v250h-1000v-250q0 -50 -50 -50h-100q-49 0 -50 50zM200 499h1000v301l-999 1z" />
<glyph unicode="S" d="M-1 750q0 250 251 250h1102q48 0 48 -49l-1 -101q0 -50 -49 -50h-1151l2 -201l948 1q251 0 251 -250v-100q0 -250 -250 -250h-1102q-48 0 -48 49l1 101q0 50 49 50h1150l-1 201l-948 -1q-251 0 -251 250z" />
<glyph unicode="T" d="M0 850v100q0 50 50 50h1300q50 0 50 -50v-100q0 -50 -50 -50h-550v-750q0 -50 -50 -50h-100q-50 0 -50 50v750h-550q-50 0 -50 50z" />
<glyph unicode="U" d="M0 250v700q0 50 50 50h99q51 0 51 -50v-750l999 -1l1 751q0 49 50 50h100q50 0 50 -50v-700q0 -250 -250 -250h-900q-250 0 -250 250z" />
<glyph unicode="V" d="M-100 1000h225l575 -850l575 850h225l-574 -850q-101 -150 -226 -150t-224 150z" />
<glyph unicode="W" horiz-adv-x="1900" d="M-50 1000h225l300 -750l250 625q50 125 175 125t175 -125l250 -625l300 750h225l-350 -875q-50 -125 -175 -125t-175 125l-250 625l-250 -625q-50 -125 -175 -125t-175 125z" />
<glyph unicode="X" d="M-100 0l600 500l-600 500h250l450 -375q80 -60 96 -104h8q16 44 96 104l450 375h250l-600 -500l600 -500h-250l-450 375q-80 60 -96 104h-8q-16 -44 -96 -104l-450 -375h-250z" />
<glyph unicode="Y" horiz-adv-x="1400" d="M-100 1000h250l500 -500l500 500h250l-650 -650v-300q0 -50 -50 -50h-100q-50 0 -50 50v300z" />
<glyph unicode="Z" d="M-1 201q0 100 100 149l1050 450h-1100q-49 1 -49 50l1 100q0 50 49 50l1100 -1q250 -3 250 -199q0 -100 -101 -150l-1048 -449l1100 -1q49 0 49 -50v-100q0 -50 -50 -50h-1099q-251 1 -252 201z" />
<glyph unicode="[" horiz-adv-x="600" d="M0 -50v1300q0 50 51 50h403q48 0 48 -49l-1 -101q0 -50 -49 -50h-252v-1001l251 1q50 0 50 -50l-1 -100q0 -50 -49 -50h-401q-50 0 -50 50z" />
<glyph unicode="\" horiz-adv-x="1300" d="M0 1000h250l950 -1000h-250z" />
<glyph unicode="]" horiz-adv-x="600" d="M0 -51l1 101q0 50 49 50h252v1001l-251 -1q-50 0 -50 50l1 100q0 50 49 50h401q50 0 50 -50v-1300q0 -50 -51 -50h-403q-48 0 -48 49z" />
<glyph unicode="^" horiz-adv-x="800" d="M0 1100l175 200q75 100 175 100t175 -100l175 -200h-225l-125 150l-125 -150h-225z" />
<glyph unicode="_" horiz-adv-x="1300" d="M0 -150q0 50 50 50h1100q50 0 50 -50v-100q0 -50 -50 -50h-1100q-50 0 -50 50v100z" />
<glyph unicode="`" horiz-adv-x="800" d="M0 1400h275l425 -300h-275z" />
<glyph unicode="a" d="M0 249v102q0 249 249 249h951v200h-1100q-50 0 -50 50v100q0 50 50 50h1050q250 0 250 -251v-699q0 -50 -50 -50h-1100q-250 0 -250 249zM200 200h1000v200h-1000v-200z" />
<glyph unicode="b" d="M-1 1351q6 49 49 49h100q52 0 52 -49v-351h950q250 0 250 -250v-500q0 -250 -250 -250h-1100q-50 0 -50 50zM201 200l999 -1l1 601l-1000 1v-601z" />
<glyph unicode="c" d="M-1 250v500q0 250 251 250h1102q48 0 48 -49l-1 -101q0 -50 -49 -50h-1151l1 -601l1150 1q50 0 50 -50l-1 -100q0 -50 -49 -50h-1100q-251 0 -251 250z" />
<glyph unicode="d" d="M-1 250v500q0 250 251 250h950v351q0 49 52 49h100q48 0 48 -49l-1 -1301q0 -50 -49 -50h-1100q-251 0 -251 250zM199 800l1 -601l999 1v601z" />
<glyph unicode="e" d="M0 251v499q0 250 250 250h899q251 0 251 -250v-300q0 -50 -50 -50h-1151v-200h1100q51 0 51 -50v-100q0 -50 -51 -50h-1050q-249 0 -249 251zM199 600h1000v200h-1000v-200z" />
<glyph unicode="f" d="M-1 750q0 250 251 250h1102q48 0 48 -49l-1 -101q0 -50 -49 -50h-1151v-250h1151q50 0 50 -50v-100q0 -50 -50 -50h-1150v-700q0 -50 -49 -50h-101q-50 0 -50 50z" />
<glyph unicode="g" d="M0 249v500q0 251 251 251h1100q49 0 49 -50v-1100q0 -250 -250 -250h-1000q-50 0 -50 50v100q0 50 50 50h1051v200h-950q-251 0 -251 249zM200 199h1000v600h-999z" />
<glyph unicode="h" d="M0 50v1300q0 50 50 50h100q50 0 50 -50v-350h950q250 0 250 -250v-700q0 -50 -50 -50h-99q-51 0 -51 50v750l-999 1l-1 -751q0 -49 -50 -50h-100q-50 0 -50 50z" />
<glyph unicode="i" horiz-adv-x="300" d="M-1 950h1q0 50 50 50h100q50 0 50 -50v-900q0 -50 -50 -50h-100q-50 0 -50 50zM0 1150v100q0 50 50 50h100q50 0 51 -50v-100q-1 -50 -51 -50h-101q-49 0 -49 50z" />
<glyph unicode="j" horiz-adv-x="300" d="M-302 -350l2 100q0 50 50 50l249 -1v1151h1q0 50 50 50h100q50 0 50 -50v-1100q0 -250 -251 -250h-202q-49 0 -49 50zM0 1150v100q0 50 50 50h100q50 0 51 -50v-100q-1 -50 -51 -50h-101q-49 0 -49 50z" />
<glyph unicode="k" d="M0 50v1300q1 50 50 50h100q50 0 50 -50v-1300q0 -50 -50 -50h-100q-50 0 -50 50zM250 500q0 75 100 125l700 375h350l-950 -500l950 -500h-350l-700 375q-100 50 -100 125z" />
<glyph unicode="l" horiz-adv-x="300" d="M-1 1350h1q0 50 50 50h100q50 0 50 -50v-1300q0 -50 -50 -50h-100q-50 0 -50 50z" />
<glyph unicode="m" horiz-adv-x="1800" d="M0 50v900q0 50 50 50h1400q250 0 250 -250v-700q0 -50 -50 -50h-99q-51 0 -51 50v750h-550v-750q0 -50 -50 -50h-100q-50 0 -50 50v751h-549l-1 -751q0 -49 -50 -50h-100q-50 0 -50 50z" />
<glyph unicode="n" d="M0 50v900q0 50 50 50h1100q250 0 250 -250v-700q0 -50 -50 -50h-99q-51 0 -51 50v750l-999 1l-1 -751q0 -49 -50 -50h-100q-50 0 -50 50z" />
<glyph unicode="o" d="M0 250v500q0 250 251 250h899q250 0 250 -250v-500q0 -250 -250 -250h-900q-250 0 -250 250zM201 200l999 -1l1 601l-1000 1v-601z" />
<glyph unicode="p" d="M0 -351l1 1301q0 50 50 50h1100q250 0 250 -251v-500q-1 -249 -250 -249h-950v-351q0 -49 -52 -49h-100q-43 0 -49 49zM202 199l1000 1l-1 600l-999 -1v-600z" />
<glyph unicode="q" d="M0 249v500q0 251 251 251h1100q49 0 49 -50l1 -1301q-6 -49 -48 -49h-100q-52 0 -52 49v351h-950q-250 0 -251 249zM200 200l1000 -1v600l-999 1z" />
<glyph unicode="r" horiz-adv-x="1400" d="M0 50v900q0 50 50 50h1000q250 0 250 -250v-100q0 -50 -50 -50h-99q-51 0 -51 50v150l-899 1l-1 -751q0 -49 -50 -50h-100q-50 0 -50 50z" />
<glyph unicode="s" d="M-1 750q0 250 251 250h1102q48 0 48 -49l-1 -101q0 -50 -49 -50h-1151l2 -201l948 1q251 0 251 -250v-100q0 -250 -250 -250h-1102q-48 0 -48 49l1 101q0 50 49 50h1150l-1 201l-948 -1q-251 0 -251 250z" />
<glyph unicode="t" d="M0 850v100q0 50 50 50h150v350q0 50 50 50h100q50 0 50 -50v-350h952q48 0 48 -49l-1 -101q0 -50 -49 -50h-950l1 -601l949 1q50 0 50 -50l-1 -100q0 -50 -49 -50h-899q-251 0 -251 250v550h-150q-50 0 -50 50z" />
<glyph unicode="u" d="M0 250v700q0 50 50 50h99q51 0 51 -50v-750l999 -1l1 751q0 49 50 50h100q50 0 50 -50v-900q0 -50 -50 -50h-1100q-250 0 -250 250z" />
<glyph unicode="v" d="M-100 1000h225l575 -850l575 850h225l-574 -850q-101 -150 -226 -150t-224 150z" />
<glyph unicode="w" horiz-adv-x="1900" d="M-50 1000h225l300 -750l250 625q50 125 175 125t175 -125l250 -625l300 750h225l-350 -875q-50 -125 -175 -125t-175 125l-250 625l-250 -625q-50 -125 -175 -125t-175 125z" />
<glyph unicode="x" d="M-100 0l600 500l-600 500h250l450 -375q80 -60 96 -104h8q16 44 96 104l450 375h250l-600 -500l600 -500h-250l-450 375q-80 60 -96 104h-8q-16 -44 -96 -104l-450 -375h-250z" />
<glyph unicode="y" d="M0 249v701q0 50 50 50h100q50 0 51 -50l-1 -751h1000v751q0 50 50 50h101q49 0 49 -50v-1100q0 -250 -250 -250h-1000q-50 0 -50 50v100q0 50 50 50h1051v200h-950q-251 0 -251 249z" />
<glyph unicode="z" d="M-1 201q0 100 100 149l1050 450h-1100q-49 1 -49 50l1 100q0 50 49 50l1100 -1q250 -3 250 -199q0 -100 -101 -150l-1048 -449l1100 -1q49 0 49 -50v-100q0 -50 -50 -50h-1099q-251 1 -252 201z" />
<glyph unicode="{" horiz-adv-x="600" d="M0 550v100q0 50 50 50h49l1 200v150q0 250 251 250h103q48 0 48 -49l-1 -101q0 -50 -49 -50h-152v-300q0 -150 -100 -200q100 -50 100 -200v-301l151 1q49 0 49 -50v-100q0 -50 -49 -50h-101q-251 0 -251 250v250h1v100h-50q-50 0 -50 50z" />
<glyph unicode="|" horiz-adv-x="300" d="M-1 1450h1q0 50 50 50h100q50 0 50 -50v-1500q0 -50 -50 -50h-100q-50 0 -50 50z" />
<glyph unicode="}" horiz-adv-x="600" d="M0 -51l1 101q0 50 49 50h152v300q0 150 100 200q-100 50 -100 200v301l-151 -1q-49 0 -49 50v100q0 50 49 50h101q251 0 251 -250v-250l-1 -100h50q50 0 50 -50v-100q0 -50 -50 -50h-49l-1 -200v-150q0 -250 -251 -250h-103q-48 0 -48 49z" />
<glyph unicode="~" horiz-adv-x="1000" d="M0 1100l150 200q75 100 175 100q75 0 125 -50l125 -100l100 150h225l-150 -200q-75 -100 -175 -100q-75 0 -125 50l-125 100l-100 -150h-225z" />
<glyph unicode="&#xa1;" horiz-adv-x="300" d="M-1 650h1q0 50 50 50h100q50 0 50 -50l1 -600q0 -50 -50 -50h-100q-50 0 -51 50zM0 850v100q0 50 50 50h100q50 0 51 -50v-100q-1 -50 -51 -50h-101q-49 0 -49 50z" />
<glyph unicode="&#xa2;" horiz-adv-x="1400" d="M-1 650q0 250 251 250h300v50q0 50 50 50h100q50 0 50 -50v-50h503q48 0 48 -49l-1 -101q0 -50 -49 -50h-501v-400h500q50 0 50 -50l-1 -100q0 -50 -49 -50h-500v-50q0 -50 -50 -50h-100q-50 0 -50 50v50h-301q-249 0 -249 250zM200 300h350v400h-350v-400z" />
<glyph unicode="&#xa3;" d="M0 50v100q0 50 50 50h150v200h-150q-50 0 -50 50v100q0 50 50 50h150v150q0 250 251 250h802q47 0 47 -50v-100q0 -50 -49 -50h-851v-200h750q50 0 50 -50v-100q0 -50 -50 -50h-750v-200h950q50 0 50 -50l-1 -100q0 -50 -49 -50h-1300q-50 0 -50 50z" />
<glyph unicode="&#xa4;" d="M-100 0l456 380q-6 32 -6 70v100q0 38 6 70l-456 380h250l289 -241q61 41 162 41h199q101 0 161 -41l289 241h250l-456 -380q6 -32 6 -70v-100q0 -38 -6 -70l456 -380h-250l-289 241q-60 -41 -161 -41h-200q-101 0 -161 41l-289 -241h-250zM550 600l1 -200h299l1 200 h-301z" />
<glyph unicode="&#xa5;" horiz-adv-x="1400" d="M-100 1000h250l400 -400h200l400 400h250l-400 -400h200q50 0 50 -50v-100q0 -50 -50 -50h-400l-50 -50v-50h450q50 0 50 -50v-100q0 -50 -50 -50h-450v-50q0 -50 -50 -50h-100q-50 0 -50 50v50h-450q-50 0 -50 50v100q0 50 50 50h450v50l-50 50h-400q-50 0 -50 50v100 q0 50 50 50h200z" />
<glyph unicode="&#xa6;" horiz-adv-x="300" d="M-1 -50v649q1 50 51 50h101q49 0 49 -49v-650q0 -50 -50 -50h-100q-50 0 -51 50zM0 799v651q0 50 50 50h100q50 0 51 -50v-651h-1q0 -50 -50 -50h-100q-50 0 -50 50z" />
<glyph unicode="&#xa7;" d="M0 -51l1 101q0 50 49 50h1050v300h-103q-23 -200 -247 -200h-200q-224 0 -247 200h-52q-251 0 -251 250v200q0 250 251 250h1002q48 0 48 -49l-1 -101q0 -50 -49 -50h-1051l1 -301h102q23 201 248 201h199q224 0 247 -200h52q251 0 251 -250v-200q0 -250 -250 -250h-1002 q-48 0 -48 49zM500 600l1 -200h299l1 200h-301z" />
<glyph unicode="&#xa8;" horiz-adv-x="900" d="M0 1150v100q0 50 50 50h100q50 0 51 -50v-100q-1 -50 -51 -50h-101q-49 0 -49 50zM600 1150v100q0 50 50 50h100q50 0 51 -50v-100q-1 -50 -51 -50h-101q-49 0 -49 50z" />
<glyph unicode="&#xa9;" horiz-adv-x="1000" d="M0 850q0 166 132 283t318 117t318 -117t132 -283t-132 -283t-318 -117t-318 117t-132 283zM50 850q0 -145 117 -247.5t283 -102.5t283 102.5t117 247.5t-117 247.5t-283 102.5t-283 -102.5t-117 -247.5zM129 725v250q0 125 126 125h452q24 0 24 -24l-1 -51q0 -25 -24 -25 h-477l1 -300h476q25 0 25 -25l-1 -50q0 -25 -24 -25h-451q-126 0 -126 125z" />
<glyph unicode="&#xaa;" horiz-adv-x="1650" d="M0 200v1100q0 200 200 200h1100q200 0 200 -200v-1100q0 -200 -200 -200h-1100q-200 0 -200 200zM25 200q1 -175 175 -175h1101q174 0 174 176v1099q0 175 -175 175h-1100q-174 0 -175 -175v-1100z" />
<glyph unicode="&#xab;" horiz-adv-x="1600" d="M0 500q0 75 100 125l500 275h350l-750 -400l750 -400h-350l-500 275q-100 50 -100 125zM550 500q0 75 100 125l500 275h350l-750 -400l750 -400h-350l-500 275q-100 50 -100 125z" />
<glyph unicode="&#xac;" horiz-adv-x="1650" d="M0 200v1100q0 200 200 200h1100q200 0 200 -200v-1100q0 -200 -200 -200h-1100q-200 0 -200 200zM25 200q1 -175 175 -175h1101q174 0 174 176v1099q0 175 -175 175h-1100q-174 0 -175 -175v-1100z" />
<glyph unicode="&#xad;" horiz-adv-x="1300" d="M0 450v100q0 50 50 50h1100q50 0 50 -50v-100q0 -50 -50 -50h-1100q-50 0 -50 50z" />
<glyph unicode="&#xae;" horiz-adv-x="1000" d="M0 850q0 166 132 283t318 117t318 -117t132 -283t-132 -283t-318 -117t-318 117t-132 283zM50 850q0 -135 101 -233q-1 4 -1 8v450q0 4 1 7q-101 -98 -101 -232zM169 600q117 -100 281 -100t281 100h-56q-25 0 -25 25v125h-400v-125q0 -25 -25 -25h-56zM169 1100h456 q125 0 125 -125v-75q0 -75 -50 -100q50 -25 50 -100v-75q0 -4 -1 -7q101 98 101 232q0 145 -117 247.5t-283 102.5q-164 0 -281 -100zM250 850h400v150h-400v-150z" />
<glyph unicode="&#xaf;" horiz-adv-x="1650" d="M0 200v1100q0 200 200 200h1100q200 0 200 -200v-1100q0 -200 -200 -200h-1100q-200 0 -200 200zM25 200q1 -175 175 -175h1101q174 0 174 176v1099q0 175 -175 175h-1100q-174 0 -175 -175v-1100z" />
<glyph unicode="&#xb0;" horiz-adv-x="1650" d="M0 200v1100q0 200 200 200h1100q200 0 200 -200v-1100q0 -200 -200 -200h-1100q-200 0 -200 200zM25 200q1 -175 175 -175h1101q174 0 174 176v1099q0 175 -175 175h-1100q-174 0 -175 -175v-1100z" />
<glyph unicode="&#xb1;" horiz-adv-x="1650" d="M0 200v1100q0 200 200 200h1100q200 0 200 -200v-1100q0 -200 -200 -200h-1100q-200 0 -200 200zM25 200q1 -175 175 -175h1101q174 0 174 176v1099q0 175 -175 175h-1100q-174 0 -175 -175v-1100z" />
<glyph unicode="&#xb2;" horiz-adv-x="1650" d="M0 200v1100q0 200 200 200h1100q200 0 200 -200v-1100q0 -200 -200 -200h-1100q-200 0 -200 200zM25 200q1 -175 175 -175h1101q174 0 174 176v1099q0 175 -175 175h-1100q-174 0 -175 -175v-1100z" />
<glyph unicode="&#xb3;" horiz-adv-x="1650" d="M0 200v1100q0 200 200 200h1100q200 0 200 -200v-1100q0 -200 -200 -200h-1100q-200 0 -200 200zM25 200q1 -175 175 -175h1101q174 0 174 176v1099q0 175 -175 175h-1100q-174 0 -175 -175v-1100z" />
<glyph unicode="&#xb4;" horiz-adv-x="800" d="M0 1100l425 300h275l-425 -300h-275z" />
<glyph unicode="&#xb5;" d="M0 -351l1 1301q0 50 50 50h99q50 0 50 -50v-750h1000v750q0 50 50 50h100q50 0 50 -50l1 -701q-1 -249 -250 -249h-950v-351q0 -49 -52 -49h-100q-43 0 -49 49z" />
<glyph unicode="&#xb6;" horiz-adv-x="1650" d="M0 200v1100q0 200 200 200h1100q200 0 200 -200v-1100q0 -200 -200 -200h-1100q-200 0 -200 200zM25 200q1 -175 175 -175h1101q174 0 174 176v1099q0 175 -175 175h-1100q-174 0 -175 -175v-1100z" />
<glyph unicode="&#xb7;" horiz-adv-x="300" d="M0 450v100q0 50 50 50h100q50 0 51 -50v-100q-1 -50 -51 -50h-101q-49 0 -49 50z" />
<glyph unicode="&#xb8;" horiz-adv-x="600" d="M0 -250q2 50 52 50h248v350q0 50 50 50h100q50 0 52 -50v-300q0 -250 -251 -250h-202q-49 0 -49 50v100z" />
<glyph unicode="&#xb9;" horiz-adv-x="1650" d="M0 200v1100q0 200 200 200h1100q200 0 200 -200v-1100q0 -200 -200 -200h-1100q-200 0 -200 200zM25 200q1 -175 175 -175h1101q174 0 174 176v1099q0 175 -175 175h-1100q-174 0 -175 -175v-1100z" />
<glyph unicode="&#xba;" horiz-adv-x="1650" d="M0 200v1100q0 200 200 200h1100q200 0 200 -200v-1100q0 -200 -200 -200h-1100q-200 0 -200 200zM25 200q1 -175 175 -175h1101q174 0 174 176v1099q0 175 -175 175h-1100q-174 0 -175 -175v-1100z" />
<glyph unicode="&#xbb;" horiz-adv-x="1600" d="M0 100l750 400l-750 400h350l500 -275q100 -50 100 -125t-100 -125l-500 -275h-350zM550 100l750 400l-750 400h350l500 -275q100 -50 100 -125t-100 -125l-500 -275h-350z" />
<glyph unicode="&#xbc;" horiz-adv-x="1650" d="M0 200v1100q0 200 200 200h1100q200 0 200 -200v-1100q0 -200 -200 -200h-1100q-200 0 -200 200zM25 200q1 -175 175 -175h1101q174 0 174 176v1099q0 175 -175 175h-1100q-174 0 -175 -175v-1100z" />
<glyph unicode="&#xbd;" horiz-adv-x="1650" d="M0 200v1100q0 200 200 200h1100q200 0 200 -200v-1100q0 -200 -200 -200h-1100q-200 0 -200 200zM25 200q1 -175 175 -175h1101q174 0 174 176v1099q0 175 -175 175h-1100q-174 0 -175 -175v-1100z" />
<glyph unicode="&#xbe;" horiz-adv-x="1650" d="M0 200v1100q0 200 200 200h1100q200 0 200 -200v-1100q0 -200 -200 -200h-1100q-200 0 -200 200zM25 200q1 -175 175 -175h1101q174 0 174 176v1099q0 175 -175 175h-1100q-174 0 -175 -175v-1100z" />
<glyph unicode="&#xbf;" d="M0 350q0 250 251 250h750v50q0 50 50 50h100q50 0 50 -50q0 -250 -250 -250h-750l-1 -200h1151q49 0 49 -50l1 -101q0 -49 -48 -49h-1102q-250 0 -250 250zM1000 850v100q0 50 50 50h100q50 0 51 -50v-100q-1 -50 -51 -50h-101q-49 0 -49 50z" />
<glyph unicode="&#xc0;" d="M-100 0l576 850q99 150 224 150t226 -150l574 -850h-225l-135 200h-880l-135 -200h-225zM350 1400h275l425 -300h-275zM396 400h608l-304 450z" />
<glyph unicode="&#xc1;" d="M-100 0l576 850q99 150 224 150t226 -150l574 -850h-225l-135 200h-880l-135 -200h-225zM350 1100l425 300h275l-425 -300h-275zM396 400h608l-304 450z" />
<glyph unicode="&#xc2;" d="M-100 0l576 850q99 150 224 150t226 -150l574 -850h-225l-135 200h-880l-135 -200h-225zM350 1100l175 200q75 100 175 100t175 -100l175 -200h-225l-125 150l-125 -150h-225zM396 400h608l-304 450z" />
<glyph unicode="&#xc3;" d="M-100 0l576 850q99 150 224 150t226 -150l574 -850h-225l-135 200h-880l-135 -200h-225zM250 1100l150 200q75 100 175 100q75 0 125 -50l125 -100l100 150h225l-150 -200q-75 -100 -175 -100q-75 0 -125 50l-125 100l-100 -150h-225zM396 400h608l-304 450z" />
<glyph unicode="&#xc4;" d="M-100 0l576 850q99 150 224 150t226 -150l574 -850h-225l-135 200h-880l-135 -200h-225zM300 1150v100q0 50 50 50h100q50 0 51 -50v-100q-1 -50 -51 -50h-101q-49 0 -49 50zM396 400h608l-304 450zM900 1150v100q0 50 50 50h100q50 0 51 -50v-100q-1 -50 -51 -50h-101 q-49 0 -49 50z" />
<glyph unicode="&#xc5;" d="M-100 0l576 850q99 150 224 150t226 -150l574 -850h-225l-135 200h-880l-135 -200h-225zM396 400h608l-304 450zM550 1250q0 62 44 106t106 44t106 -44t44 -106t-44 -106t-106 -44t-106 44t-44 106z" />
<glyph unicode="&#xc6;" horiz-adv-x="2300" d="M-100 0l576 850q99 150 224 150t226 -150l74 -110v10q0 250 251 250h902q48 0 48 -49l-1 -101q0 -50 -49 -50h-951v-200h951q50 0 50 -50v-100q0 -50 -50 -50h-951l-1 -200h952q50 0 50 -50l-1 -100q0 -50 -49 -50h-900q-225 0 -248 200h-743l-135 -200h-225zM396 400 h608l-304 450z" />
<glyph unicode="&#xc7;" d="M-1 250v500q0 250 251 250h1102q48 0 48 -49l-1 -101q0 -50 -49 -50h-1151l1 -601l1150 1q50 0 50 -50l-1 -100q0 -50 -49 -50h-450v-150q0 -250 -251 -250h-202q-49 0 -49 50v100q2 50 52 50h248v200h-448q-251 0 -251 250z" />
<glyph unicode="&#xc8;" d="M-1 250v500q0 250 251 250h1102q48 0 48 -49l-1 -101q0 -50 -49 -50h-1151v-200h1151q50 0 50 -50v-100q0 -50 -50 -50h-1150v-201l1150 1q50 0 50 -50l-1 -100q0 -50 -49 -50h-1100q-251 0 -251 250zM350 1400h275l425 -300h-275z" />
<glyph unicode="&#xc9;" d="M-1 250v500q0 250 251 250h1102q48 0 48 -49l-1 -101q0 -50 -49 -50h-1151v-200h1151q50 0 50 -50v-100q0 -50 -50 -50h-1150v-201l1150 1q50 0 50 -50l-1 -100q0 -50 -49 -50h-1100q-251 0 -251 250zM350 1100l425 300h275l-425 -300h-275z" />
<glyph unicode="&#xca;" d="M-1 250v500q0 250 251 250h1102q48 0 48 -49l-1 -101q0 -50 -49 -50h-1151v-200h1151q50 0 50 -50v-100q0 -50 -50 -50h-1150v-201l1150 1q50 0 50 -50l-1 -100q0 -50 -49 -50h-1100q-251 0 -251 250zM350 1100l175 200q75 100 175 100t175 -100l175 -200h-225l-125 150 l-125 -150h-225z" />
<glyph unicode="&#xcb;" d="M-1 250v500q0 250 251 250h1102q48 0 48 -49l-1 -101q0 -50 -49 -50h-1151v-200h1151q50 0 50 -50v-100q0 -50 -50 -50h-1150v-201l1150 1q50 0 50 -50l-1 -100q0 -50 -49 -50h-1100q-251 0 -251 250zM300 1150v100q0 50 50 50h100q50 0 51 -50v-100q-1 -50 -51 -50h-101 q-49 0 -49 50zM900 1150v100q0 50 50 50h100q50 0 51 -50v-100q-1 -50 -51 -50h-101q-49 0 -49 50z" />
<glyph unicode="&#xcc;" horiz-adv-x="300" d="M-250 1400h275l425 -300h-275zM-1 950h1q0 50 50 50h100q50 0 50 -50v-900q0 -50 -50 -50h-100q-50 0 -50 50z" />
<glyph unicode="&#xcd;" horiz-adv-x="300" d="M-250 1100l425 300h275l-425 -300h-275zM-1 950h1q0 50 50 50h100q50 0 50 -50v-900q0 -50 -50 -50h-100q-50 0 -50 50z" />
<glyph unicode="&#xce;" horiz-adv-x="300" d="M-250 1100l175 200q75 100 175 100t175 -100l175 -200h-225l-125 150l-125 -150h-225zM-1 950h1q0 50 50 50h100q50 0 50 -50v-900q0 -50 -50 -50h-100q-50 0 -50 50z" />
<glyph unicode="&#xcf;" horiz-adv-x="300" d="M-301 1150v100q0 50 50 50h100q50 0 51 -50v-100q-1 -50 -51 -50h-101q-49 0 -49 50zM-1 950h1q0 50 50 50h100q50 0 50 -50v-900q0 -50 -50 -50h-100q-50 0 -50 50zM299 1150v100q0 50 50 50h100q50 0 51 -50v-100q-1 -50 -51 -50h-101q-49 0 -49 50z" />
<glyph unicode="&#xd0;" d="M0 550v100q0 50 50 50h150v250q0 50 50 50h900q250 0 250 -250v-500q0 -250 -250 -250h-900q-50 0 -50 50v450h-150q-50 0 -50 50zM401 200h799v600l-799 1v-101h149q50 0 50 -50v-100q0 -50 -50 -50h-149v-300z" />
<glyph unicode="&#xd1;" d="M0 50v750q0 200 200 201q100 0 250 -151l750 -701v802q0 49 50 49h100q51 0 51 -50v-750q-1 -200 -201 -200q-100 0 -250 150l-751 700v-799q0 -51 -49 -51h-101q-49 0 -49 50zM250 1100l150 200q75 100 175 100q75 0 125 -50l125 -100l100 150h225l-150 -200 q-75 -100 -175 -100q-75 0 -125 50l-125 100l-100 -150h-225z" />
<glyph unicode="&#xd2;" d="M0 250v500q0 250 251 250h899q250 0 250 -250v-500q0 -250 -250 -250h-900q-250 0 -250 250zM201 200l999 -1l1 601l-1000 1v-601zM350 1400h275l425 -300h-275z" />
<glyph unicode="&#xd3;" d="M0 250v500q0 250 251 250h899q250 0 250 -250v-500q0 -250 -250 -250h-900q-250 0 -250 250zM201 200l999 -1l1 601l-1000 1v-601zM350 1100l425 300h275l-425 -300h-275z" />
<glyph unicode="&#xd4;" d="M0 250v500q0 250 251 250h899q250 0 250 -250v-500q0 -250 -250 -250h-900q-250 0 -250 250zM201 200l999 -1l1 601l-1000 1v-601zM350 1100l175 200q75 100 175 100t175 -100l175 -200h-225l-125 150l-125 -150h-225z" />
<glyph unicode="&#xd5;" d="M0 250v500q0 250 251 250h899q250 0 250 -250v-500q0 -250 -250 -250h-900q-250 0 -250 250zM201 200l999 -1l1 601l-1000 1v-601zM250 1100l150 200q75 100 175 100q75 0 125 -50l125 -100l100 150h225l-150 -200q-75 -100 -175 -100q-75 0 -125 50l-125 100l-100 -150 h-225z" />
<glyph unicode="&#xd6;" d="M0 250v500q0 250 251 250h899q250 0 250 -250v-500q0 -250 -250 -250h-900q-250 0 -250 250zM201 200l999 -1l1 601l-1000 1v-601zM300 1150v100q0 50 50 50h100q50 0 51 -50v-100q-1 -50 -51 -50h-101q-49 0 -49 50zM900 1150v100q0 50 50 50h100q50 0 51 -50v-100 q-1 -50 -51 -50h-101q-49 0 -49 50z" />
<glyph unicode="&#xd7;" d="M0 100l500 400l-500 400h250l350 -275q80 -60 96 -104h8q16 44 96 104l350 275h250l-500 -400l500 -400h-250l-350 275q-80 60 -96 104h-8q-16 -44 -96 -104l-350 -275h-250z" />
<glyph unicode="&#xd8;" d="M0 250v500q0 250 251 250h1049l-22 -23q122 -53 122 -227v-500q0 -250 -250 -250h-1050l22 23q-122 53 -122 227zM201 200h89l570 600l-659 1v-601zM540 200l660 -1l1 601h-91z" />
<glyph unicode="&#xd9;" d="M0 250v700q0 50 50 50h99q51 0 51 -50v-750l999 -1l1 751q0 49 50 50h100q50 0 50 -50v-900q0 -50 -50 -50h-1100q-250 0 -250 250zM350 1400h275l425 -300h-275z" />
<glyph unicode="&#xda;" d="M0 250v700q0 50 50 50h99q51 0 51 -50v-750l999 -1l1 751q0 49 50 50h100q50 0 50 -50v-900q0 -50 -50 -50h-1100q-250 0 -250 250zM350 1100l425 300h275l-425 -300h-275z" />
<glyph unicode="&#xdb;" d="M0 250v700q0 50 50 50h99q51 0 51 -50v-750l999 -1l1 751q0 49 50 50h100q50 0 50 -50v-900q0 -50 -50 -50h-1100q-250 0 -250 250zM350 1100l175 200q75 100 175 100t175 -100l175 -200h-225l-125 150l-125 -150h-225z" />
<glyph unicode="&#xdc;" d="M0 250v700q0 50 50 50h99q51 0 51 -50v-750l999 -1l1 751q0 49 50 50h100q50 0 50 -50v-900q0 -50 -50 -50h-1100q-250 0 -250 250zM300 1150v100q0 50 50 50h100q50 0 51 -50v-100q-1 -50 -51 -50h-101q-49 0 -49 50zM900 1150v100q0 50 50 50h100q50 0 51 -50v-100 q-1 -50 -51 -50h-101q-49 0 -49 50z" />
<glyph unicode="&#xdd;" horiz-adv-x="1400" d="M-100 1000h250l500 -500l500 500h250l-650 -650v-300q0 -50 -50 -50h-100q-50 0 -50 50v300zM300 1100l425 300h275l-425 -300h-275z" />
<glyph unicode="&#xde;" d="M0 50v900q1 50 50 50h101q49 0 49 -50v-50h950q250 0 250 -250v-300q-1 -250 -251 -250h-949v-50q0 -50 -50 -50h-100q-50 0 -50 50zM200 300h999l1 400l-999 1z" />
<glyph unicode="&#xdf;" d="M0 50l1 700q0 250 250 250h899q250 0 250 -250v-50q0 -150 -100 -200q100 -50 100 -200l-1 -50q0 -250 -250 -250h-699q-50 0 -50 50v100q0 50 50 50h749l1 200h-750q-50 0 -50 50v100q0 50 50 50h749l1 200h-999v-100h-1v-650q0 -50 -50 -50h-100q-50 0 -50 50z" />
<glyph unicode="&#xe0;" d="M0 249v102q0 249 249 249h951v200h-1100q-50 0 -50 50v100q0 50 50 50h1050q250 0 250 -251v-699q0 -50 -50 -50h-1100q-250 0 -250 249zM200 200h1000v200h-1000v-200zM350 1400h275l425 -300h-275z" />
<glyph unicode="&#xe1;" d="M0 249v102q0 249 249 249h951v200h-1100q-50 0 -50 50v100q0 50 50 50h1050q250 0 250 -251v-699q0 -50 -50 -50h-1100q-250 0 -250 249zM200 200h1000v200h-1000v-200zM350 1100l425 300h275l-425 -300h-275z" />
<glyph unicode="&#xe2;" d="M0 249v102q0 249 249 249h951v200h-1100q-50 0 -50 50v100q0 50 50 50h1050q250 0 250 -251v-699q0 -50 -50 -50h-1100q-250 0 -250 249zM200 200h1000v200h-1000v-200zM350 1100l175 200q75 100 175 100t175 -100l175 -200h-225l-125 150l-125 -150h-225z" />
<glyph unicode="&#xe3;" d="M0 249v102q0 249 249 249h951v200h-1100q-50 0 -50 50v100q0 50 50 50h1050q250 0 250 -251v-699q0 -50 -50 -50h-1100q-250 0 -250 249zM200 200h1000v200h-1000v-200zM250 1100l150 200q75 100 175 100q75 0 125 -50l125 -100l100 150h225l-150 -200 q-75 -100 -175 -100q-75 0 -125 50l-125 100l-100 -150h-225z" />
<glyph unicode="&#xe4;" d="M0 249v102q0 249 249 249h951v200h-1100q-50 0 -50 50v100q0 50 50 50h1050q250 0 250 -251v-699q0 -50 -50 -50h-1100q-250 0 -250 249zM200 200h1000v200h-1000v-200zM300 1150v100q0 50 50 50h100q50 0 51 -50v-100q-1 -50 -51 -50h-101q-49 0 -49 50zM900 1150v100 q0 50 50 50h100q50 0 51 -50v-100q-1 -50 -51 -50h-101q-49 0 -49 50z" />
<glyph unicode="&#xe5;" d="M0 249v102q0 249 249 249h951v200h-1100q-50 0 -50 50v100q0 50 50 50h1050q250 0 250 -251v-699q0 -50 -50 -50h-1100q-250 0 -250 249zM200 200h1000v200h-1000v-200zM550 1250q0 62 44 106t106 44t106 -44t44 -106t-44 -106t-106 -44t-106 44t-44 106z" />
<glyph unicode="&#xe6;" horiz-adv-x="2300" d="M0 249v102q0 249 249 249h750v200h-899q-50 0 -50 50v100q0 50 50 50h849q92 0 150 -34q58 34 150 34h700q251 0 251 -250v-300q0 -50 -50 -50h-951v-200h900q51 0 51 -50v-100q0 -50 -51 -50h-1849q-250 0 -250 249zM200 200h799v200h-799v-200zM1198 780q1 -15 1 -31 v-149h800v200h-801v-20z" />
<glyph unicode="&#xe7;" d="M-1 250v500q0 250 251 250h1102q48 0 48 -49l-1 -101q0 -50 -49 -50h-1151l1 -601l1150 1q50 0 50 -50l-1 -100q0 -50 -49 -50h-450v-150q0 -250 -251 -250h-202q-49 0 -49 50v100q2 50 52 50h248v200h-448q-251 0 -251 250z" />
<glyph unicode="&#xe8;" d="M0 251v499q0 250 250 250h899q251 0 251 -250v-300q0 -50 -50 -50h-1151v-200h1100q51 0 51 -50v-100q0 -50 -51 -50h-1050q-249 0 -249 251zM199 600h1000v200h-1000v-200zM350 1400h275l425 -300h-275z" />
<glyph unicode="&#xe9;" d="M0 251v499q0 250 250 250h899q251 0 251 -250v-300q0 -50 -50 -50h-1151v-200h1100q51 0 51 -50v-100q0 -50 -51 -50h-1050q-249 0 -249 251zM199 600h1000v200h-1000v-200zM350 1100l425 300h275l-425 -300h-275z" />
<glyph unicode="&#xea;" d="M0 251v499q0 250 250 250h899q251 0 251 -250v-300q0 -50 -50 -50h-1151v-200h1100q51 0 51 -50v-100q0 -50 -51 -50h-1050q-249 0 -249 251zM199 600h1000v200h-1000v-200zM350 1100l175 200q75 100 175 100t175 -100l175 -200h-225l-125 150l-125 -150h-225z" />
<glyph unicode="&#xeb;" d="M0 251v499q0 250 250 250h899q251 0 251 -250v-300q0 -50 -50 -50h-1151v-200h1100q51 0 51 -50v-100q0 -50 -51 -50h-1050q-249 0 -249 251zM199 600h1000v200h-1000v-200zM300 1150v100q0 50 50 50h100q50 0 51 -50v-100q-1 -50 -51 -50h-101q-49 0 -49 50zM900 1150 v100q0 50 50 50h100q50 0 51 -50v-100q-1 -50 -51 -50h-101q-49 0 -49 50z" />
<glyph unicode="&#xec;" horiz-adv-x="300" d="M-250 1400h275l425 -300h-275zM-1 950h1q0 50 50 50h100q50 0 50 -50v-900q0 -50 -50 -50h-100q-50 0 -50 50z" />
<glyph unicode="&#xed;" horiz-adv-x="300" d="M-250 1100l425 300h275l-425 -300h-275zM-1 950h1q0 50 50 50h100q50 0 50 -50v-900q0 -50 -50 -50h-100q-50 0 -50 50z" />
<glyph unicode="&#xee;" horiz-adv-x="300" d="M-250 1100l175 200q75 100 175 100t175 -100l175 -200h-225l-125 150l-125 -150h-225zM-1 950h1q0 50 50 50h100q50 0 50 -50v-900q0 -50 -50 -50h-100q-50 0 -50 50z" />
<glyph unicode="&#xef;" horiz-adv-x="300" d="M-301 1150v100q0 50 50 50h100q50 0 51 -50v-100q-1 -50 -51 -50h-101q-49 0 -49 50zM-1 950h1q0 50 50 50h100q50 0 50 -50v-900q0 -50 -50 -50h-100q-50 0 -50 50zM299 1150v100q0 50 50 50h100q50 0 51 -50v-100q-1 -50 -51 -50h-101q-49 0 -49 50z" />
<glyph unicode="&#xf0;" d="M0 251v500q0 249 251 249h750v200h-851q-50 0 -50 50v100q0 50 50 50h800q250 0 250 -250v-150h150q50 0 50 -50v-100q0 -50 -50 -50h-150v-750q0 -50 -49 -50h-900q-251 0 -251 251zM200 801l1 -600h799v600h-800z" />
<glyph unicode="&#xf1;" d="M0 50v900q0 50 50 50h1100q250 0 250 -250v-700q0 -50 -50 -50h-99q-51 0 -51 50v750l-999 1l-1 -751q0 -49 -50 -50h-100q-50 0 -50 50zM250 1100l150 200q75 100 175 100q75 0 125 -50l125 -100l100 150h225l-150 -200q-75 -100 -175 -100q-75 0 -125 50l-125 100 l-100 -150h-225z" />
<glyph unicode="&#xf2;" d="M0 250v500q0 250 251 250h899q250 0 250 -250v-500q0 -250 -250 -250h-900q-250 0 -250 250zM201 200l999 -1l1 601l-1000 1v-601zM350 1400h275l425 -300h-275z" />
<glyph unicode="&#xf3;" d="M0 250v500q0 250 251 250h899q250 0 250 -250v-500q0 -250 -250 -250h-900q-250 0 -250 250zM201 200l999 -1l1 601l-1000 1v-601zM350 1100l425 300h275l-425 -300h-275z" />
<glyph unicode="&#xf4;" d="M0 250v500q0 250 251 250h899q250 0 250 -250v-500q0 -250 -250 -250h-900q-250 0 -250 250zM201 200l999 -1l1 601l-1000 1v-601zM350 1100l175 200q75 100 175 100t175 -100l175 -200h-225l-125 150l-125 -150h-225z" />
<glyph unicode="&#xf5;" d="M0 250v500q0 250 251 250h899q250 0 250 -250v-500q0 -250 -250 -250h-900q-250 0 -250 250zM201 200l999 -1l1 601l-1000 1v-601zM250 1100l150 200q75 100 175 100q75 0 125 -50l125 -100l100 150h225l-150 -200q-75 -100 -175 -100q-75 0 -125 50l-125 100l-100 -150 h-225z" />
<glyph unicode="&#xf6;" d="M0 250v500q0 250 251 250h899q250 0 250 -250v-500q0 -250 -250 -250h-900q-250 0 -250 250zM201 200l999 -1l1 601l-1000 1v-601zM300 1150v100q0 50 50 50h100q50 0 51 -50v-100q-1 -50 -51 -50h-101q-49 0 -49 50zM900 1150v100q0 50 50 50h100q50 0 51 -50v-100 q-1 -50 -51 -50h-101q-49 0 -49 50z" />
<glyph unicode="&#xf7;" horiz-adv-x="1300" d="M0 450v100q0 50 50 50h1100q50 0 50 -50v-100q0 -50 -50 -50h-1100q-50 0 -50 50zM500 150v100q0 50 50 50h100q50 0 51 -50v-100q-1 -50 -51 -50h-101q-49 0 -49 50zM500 750v100q0 50 50 50h100q50 0 51 -50v-100q-1 -50 -51 -50h-101q-49 0 -49 50z" />
<glyph unicode="&#xf8;" d="M0 250v500q0 250 251 250h1049l-22 -23q122 -53 122 -227v-500q0 -250 -250 -250h-1050l22 23q-122 53 -122 227zM201 200h89l570 600l-659 1v-601zM540 200l660 -1l1 601h-91z" />
<glyph unicode="&#xf9;" d="M0 250v700q0 50 50 50h99q51 0 51 -50v-750l999 -1l1 751q0 49 50 50h100q50 0 50 -50v-700q0 -250 -250 -250h-900q-250 0 -250 250zM350 1400h275l425 -300h-275z" />
<glyph unicode="&#xfa;" d="M0 250v700q0 50 50 50h99q51 0 51 -50v-750l999 -1l1 751q0 49 50 50h100q50 0 50 -50v-700q0 -250 -250 -250h-900q-250 0 -250 250zM350 1100l425 300h275l-425 -300h-275z" />
<glyph unicode="&#xfb;" d="M0 250v700q0 50 50 50h99q51 0 51 -50v-750l999 -1l1 751q0 49 50 50h100q50 0 50 -50v-700q0 -250 -250 -250h-900q-250 0 -250 250zM350 1100l175 200q75 100 175 100t175 -100l175 -200h-225l-125 150l-125 -150h-225z" />
<glyph unicode="&#xfc;" d="M0 250v700q0 50 50 50h99q51 0 51 -50v-750l999 -1l1 751q0 49 50 50h100q50 0 50 -50v-700q0 -250 -250 -250h-900q-250 0 -250 250zM300 1150v100q0 50 50 50h100q50 0 51 -50v-100q-1 -50 -51 -50h-101q-49 0 -49 50zM900 1150v100q0 50 50 50h100q50 0 51 -50v-100 q-1 -50 -51 -50h-101q-49 0 -49 50z" />
<glyph unicode="&#xfd;" d="M0 249v701q0 50 50 50h100q50 0 51 -50l-1 -751h1000v751q0 50 50 50h101q49 0 49 -50v-1100q0 -250 -250 -250h-1000q-50 0 -50 50v100q0 50 50 50h1051v200h-950q-251 0 -251 249zM350 1100l425 300h275l-425 -300h-275z" />
<glyph unicode="&#xfe;" d="M0 -351v1701q0 50 50 50h100q50 0 50 -50v-350h951q250 0 250 -251v-500q-1 -249 -250 -249h-950v-351q0 -49 -52 -49h-100q-43 0 -49 49zM200 800l1 -600h1001l-1 600h-1001z" />
<glyph unicode="&#xff;" d="M0 249v701q0 50 50 50h100q50 0 51 -50l-1 -751h1000v751q0 50 50 50h101q49 0 49 -50v-1100q0 -250 -250 -250h-1000q-50 0 -50 50v100q0 50 50 50h1051v200h-950q-251 0 -251 249zM300 1150v100q0 50 50 50h100q50 0 51 -50v-100q-1 -50 -51 -50h-101q-49 0 -49 50z M900 1150v100q0 50 50 50h100q50 0 51 -50v-100q-1 -50 -51 -50h-101q-49 0 -49 50z" />
<glyph unicode="&#x152;" horiz-adv-x="2300" d="M0 250v500q0 250 251 250h699q92 0 150 -50q59 50 151 50h902q48 0 48 -49l-1 -101q0 -50 -49 -50h-951v-200h951q50 0 50 -50v-100q0 -50 -50 -50h-950v-201l950 1q50 0 50 -50l-1 -100q0 -50 -49 -50h-900q-92 0 -152 50q-57 -50 -149 -50h-700q-250 0 -250 250z M201 200l799 -1l1 601l-800 1v-601z" />
<glyph unicode="&#x153;" horiz-adv-x="2300" d="M0 250v500q0 250 251 250h699q92 0 150 -50q58 50 150 50h700q251 0 251 -250v-300q0 -50 -50 -50h-951l-1 -200h901q51 0 51 -50v-100q0 -50 -51 -50h-851q-91 0 -148 51q-59 -51 -151 -51h-700q-250 0 -250 250zM201 200h800v600l-800 1v-601zM1199 600h801v200h-801 v-200z" />
<glyph unicode="&#x2c6;" horiz-adv-x="800" d="M0 1100l175 200q75 100 175 100t175 -100l175 -200h-225l-125 150l-125 -150h-225z" />
<glyph unicode="&#x2dc;" horiz-adv-x="1000" d="M0 1100l150 200q75 100 175 100q75 0 125 -50l125 -100l100 150h225l-150 -200q-75 -100 -175 -100q-75 0 -125 50l-125 100l-100 -150h-225z" />
<glyph unicode="&#x2000;" horiz-adv-x="750" />
<glyph unicode="&#x2001;" />
<glyph unicode="&#x2002;" horiz-adv-x="750" />
<glyph unicode="&#x2003;" />
<glyph unicode="&#x2004;" horiz-adv-x="500" />
<glyph unicode="&#x2005;" horiz-adv-x="375" />
<glyph unicode="&#x2006;" horiz-adv-x="250" />
<glyph unicode="&#x2007;" horiz-adv-x="250" />
<glyph unicode="&#x2008;" horiz-adv-x="187" />
<glyph unicode="&#x2009;" horiz-adv-x="300" />
<glyph unicode="&#x200a;" horiz-adv-x="83" />
<glyph unicode="&#x2010;" horiz-adv-x="1300" d="M0 450v100q0 50 50 50h1100q50 0 50 -50v-100q0 -50 -50 -50h-1100q-50 0 -50 50z" />
<glyph unicode="&#x2011;" horiz-adv-x="1300" d="M0 450v100q0 50 50 50h1100q50 0 50 -50v-100q0 -50 -50 -50h-1100q-50 0 -50 50z" />
<glyph unicode="&#x2012;" horiz-adv-x="1300" d="M0 450v100q0 50 50 50h1100q50 0 50 -50v-100q0 -50 -50 -50h-1100q-50 0 -50 50z" />
<glyph unicode="&#x2013;" horiz-adv-x="1400" d="M0 450v100q0 50 50 50h1200q50 0 50 -50v-100q0 -50 -50 -50h-1200q-50 0 -50 50z" />
<glyph unicode="&#x2014;" d="M0 450v100q0 50 50 50h1300q50 0 50 -50v-100q0 -50 -50 -50h-1300q-50 0 -50 50z" />
<glyph unicode="&#x2018;" horiz-adv-x="350" d="M0 600v150q0 250 250 250v-150q0 -50 -50 -50v-200q0 -50 -50 -50h-100q-50 0 -50 50z" />
<glyph unicode="&#x2019;" horiz-adv-x="350" d="M0 550v150q1 50 50 50v200q0 50 50 50h100q50 0 50 -50v-150q0 -250 -250 -250z" />
<glyph unicode="&#x201a;" horiz-adv-x="350" d="M0 -100q1 50 50 50v200q0 50 50 50h100q50 0 50 -50v-150q0 -250 -250 -250v150z" />
<glyph unicode="&#x201c;" horiz-adv-x="650" d="M0 600v150q0 250 250 250v-150q0 -50 -50 -50v-200q0 -50 -50 -50h-100q-50 0 -50 50zM300 600v150q0 250 250 250v-150q0 -50 -50 -50v-200q0 -50 -50 -50h-100q-50 0 -50 50z" />
<glyph unicode="&#x201d;" horiz-adv-x="650" d="M0 550v150q1 50 50 50v200q0 50 50 50h100q50 0 50 -50v-150q0 -250 -250 -250zM300 550v150q1 50 50 50v200q0 50 50 50h100q50 0 50 -50v-150q0 -250 -250 -250z" />
<glyph unicode="&#x201e;" horiz-adv-x="650" d="M0 -100q1 50 50 50v200q0 50 50 50h100q50 0 50 -50v-150q0 -250 -250 -250v150zM300 -100q1 50 50 50v200q0 50 50 50h100q50 0 50 -50v-150q0 -250 -250 -250v150z" />
<glyph unicode="&#x2022;" horiz-adv-x="1650" d="M0 200v1100q0 200 200 200h1100q200 0 200 -200v-1100q0 -200 -200 -200h-1100q-200 0 -200 200zM25 200q1 -175 175 -175h1101q174 0 174 176v1099q0 175 -175 175h-1100q-174 0 -175 -175v-1100z" />
<glyph unicode="&#x2026;" horiz-adv-x="900" d="M0 50v100q0 50 50 50h100q50 0 51 -50v-100q-1 -50 -51 -50h-101q-49 0 -49 50zM300 50v100q0 50 50 50h100q50 0 51 -50v-100q-1 -50 -51 -50h-101q-49 0 -49 50zM600 50v100q0 50 50 50h100q50 0 51 -50v-100q-1 -50 -51 -50h-101q-49 0 -49 50z" />
<glyph unicode="&#x202f;" horiz-adv-x="300" />
<glyph unicode="&#x2039;" horiz-adv-x="1050" d="M0 500q0 75 100 125l500 275h350l-750 -400l750 -400h-350l-500 275q-100 50 -100 125z" />
<glyph unicode="&#x203a;" horiz-adv-x="1050" d="M0 100l750 400l-750 400h350l500 -275q100 -50 100 -125t-100 -125l-500 -275h-350z" />
<glyph unicode="&#x205f;" horiz-adv-x="375" />
<glyph unicode="&#x20ac;" d="M0 325v100q0 50 50 50h150v50h-150q-50 0 -50 50v100q0 50 50 50h150v25q0 250 251 250h901q48 0 48 -49l-1 -101q0 -50 -49 -50h-950v-75h750q50 0 50 -50v-100q0 -50 -50 -50h-750v-50h750q50 0 50 -50v-100q0 -50 -50 -50h-750v-75h950q50 0 50 -50l-1 -100 q0 -50 -49 -50h-899q-251 0 -251 250v25h-150q-50 0 -50 50z" />
<glyph unicode="&#x2122;" horiz-adv-x="1650" d="M0 925v50q0 25 25 25h650q25 0 25 -25v-50q0 -25 -25 -25h-275v-375q0 -25 -25 -25h-50q-25 0 -25 25v375h-275q-25 0 -25 25zM750 525v375q0 100 100 101q50 0 100 -76l200 -325l200 326q50 74 100 74q100 0 100 -100v-375q0 -24 -25 -24h-51q-24 0 -24 24v376 l-225 -351q-25 -50 -75 -50t-75 50l-225 350v-375q0 -24 -25 -24h-50q-25 0 -25 24z" />
<glyph unicode="&#x25fc;" horiz-adv-x="1000" d="M0 0v1000h1000v-1000h-1000z" />
</font>
</defs>
</svg>
